<?xml version="1.0" encoding="UTF-8" standalone="no"?>
<svg
   xmlns:dc="http://purl.org/dc/elements/1.1/"
   xmlns:cc="http://creativecommons.org/ns#"
   xmlns:rdf="http://www.w3.org/1999/02/22-rdf-syntax-ns#"
   xmlns:svg="http://www.w3.org/2000/svg"
   xmlns="http://www.w3.org/2000/svg"
   xmlns:sodipodi="http://sodipodi.sourceforge.net/DTD/sodipodi-0.dtd"
   xmlns:inkscape="http://www.inkscape.org/namespaces/inkscape"
   width="228pt"
   height="235pt"
   viewBox="0 0 228 235"
   version="1.1"
   id="svg2"
   inkscape:version="0.91 r13725"
   sodipodi:docname="down.svg">
  <metadata
     id="metadata72">
    <rdf:RDF>
      <cc:Work
         rdf:about="">
        <dc:format>image/svg+xml</dc:format>
        <dc:type
           rdf:resource="http://purl.org/dc/dcmitype/StillImage" />
      </cc:Work>
    </rdf:RDF>
  </metadata>
  <defs
     id="defs70" />
  <sodipodi:namedview
     pagecolor="#ffffff"
     bordercolor="#666666"
     borderopacity="1"
     objecttolerance="10"
     gridtolerance="10"
     guidetolerance="10"
     inkscape:pageopacity="0"
     inkscape:pageshadow="2"
     inkscape:window-width="1600"
     inkscape:window-height="1137"
     id="namedview68"
     showgrid="false"
     inkscape:zoom="2.8284271"
     inkscape:cx="123.1683"
     inkscape:cy="163.81117"
     inkscape:window-x="-8"
     inkscape:window-y="-8"
     inkscape:window-maximized="1"
     inkscape:current-layer="layer3" />
  <g
     inkscape:groupmode="layer"
     id="layer3"
     inkscape:label="Layer 1"
     style="display:inline">
    <g
       id="g4276">
      <path
         inkscape:connector-curvature="0"
         id="path6-5"
         d="m 113.3961,12.617504 c 4.91,-0.33 9.73,0.98 14.62999,0.88 17.79,2 35.08,8.49 49.76,18.76 26.32,17.91 43.99,47.969996 46.74,79.699996 0.19,11.46 0.9,23.17 -2.21,34.32 -4.64,21.81 -16.39,42.08 -33.09,56.87 -17.07,16.23 -39.88,25.82 -63.18,28.32 -13.7,0.54 -27.659982,0.4 -40.849982,-3.82 -18.9,-5.28 -35.99,-16.12 -49.590005,-30.16 -3.16,-4.17 -6.97,-7.8 -9.85,-12.19 -10.61,-15.09 -17.2399987,-32.95 -19.2399988,-51.28 0.18,-4.7 -1.6,-9.31999 -0.6,-13.99999 0.91,-5.6 -0.03,-11.38 1.53,-16.90001 3.1699998,-17.72 10.8499988,-34.58 22.1099988,-48.619996 17.35,-22.7 44.330005,-37.38 72.560007,-40.95 3.77999,-0.04 7.53999,-0.39 11.27999,-0.93 z"
         style="display:inline;fill:#2b2b0f;fill-opacity:0.12779553" />
      <path
         inkscape:connector-curvature="0"
         id="path32-6"
         d="m 26.776103,63.687504 c 0.389999,-0.11 1.18,-0.33 1.57,-0.44 -7.78,12.999996 -13.5,27.329996 -15.419999,42.419996 -0.87,4.07 -1.23,8.21 -1.23,12.36 0.03,4.87 -0.5,9.89 1.17,14.57 0.32,1.87 0.559999,3.76 0.779999,5.65 0.17,5.01 1.48,10 3.45,14.59 0.21,0.08 0.63,0.24 0.84,0.32 l 0.25,0.33 c -1.35,1.83 -0.08,3.74 0.47,5.51 5.53,14.61 14.37,27.95 25.8,38.61 6.460005,6.81 15.030005,10.92 22.610005,16.3 11.29,6.32 24.03,9.69 36.779982,11.46 6.99,0.45 14.01,0.25 21,0.18 22.23,-2.01 43.81,-11.3 60.25,-26.45 16.06,-14.40999 27.38,-34.02 31.59,-55.2 3.14,-14.44 3.78,-29.65999 0.29,-44.1 -0.11,-0.43 -0.31,-1.3 -0.41,-1.74 l 0,0 c -1.77,-10.59 -6.31,-20.4 -10.95,-29.98 0.4,0.14 1.21,0.41 1.61001,0.55 7.97,13.49 12.72999,28.81 14.28,44.36 0.16,6.35 0.12999,12.7 -0.01,19.06 -1.97,19.51 -9.09,38.64 -21.08,54.26 -15.28,20.36 -38.06,35.05 -63.05,40.1 -3.7,1.12 -7.59,1.01 -11.32,1.96 -10.5,0.29 -21.12,0.73 -31.389992,-1.8 -33.62,-6.24 -63.000005,-30.27 -76.630005,-61.51 -4.55,-10.14 -7.039999,-21.1 -8.5099987,-32.05 -0.2,-11.41 -0.79,-22.99 2.2299997,-34.1 2.569999,-12.61 8.049999,-24.47 15.029999,-35.219996 z"
         style="display:inline;fill:#525246;fill-opacity:0.52941165" />
      <path
         inkscape:connector-curvature="0"
         id="path36-0"
         d="m 216.97609,99.7975 c 3.49,14.44 2.85,29.66 -0.29,44.1 -4.21,21.18 -15.53,40.79 -31.59,55.2 -16.44,15.15 -38.02,24.44 -60.25,26.45 -6.99,0.07 -14.01,0.27 -21,-0.18 -12.749982,-1.77 -25.489982,-5.14 -36.779982,-11.46 -7.58,-5.38 -16.15,-9.49 -22.610005,-16.3 -11.43,-10.66 -20.27,-24 -25.8,-38.61 -0.55,-1.77 -1.82,-3.68 -0.47,-5.51 3,6.57 5.67,13.41 9.64,19.52 12.99,21.83 34.740005,38.09 59.090005,45.12 23.779982,6.79 50.269982,5.09 72.479982,-6.05 22.4,-10.47 40.74,-29.33 50.55,-52.03 8.35,-18.81 10.39,-40.03 7.03,-60.25 z"
         style="display:inline;fill:#211e10;fill-opacity:0.69019608" />
      <path
         inkscape:connector-curvature="0"
         id="path8"
         d="M 66.65,27.73 C 97.6,10.98 137.22,11.5 167.47,29.55 l 0.61,0.65 c -5.19,-1.71 -9.77,-4.84 -15,-6.48 -5.16,-1.63 -10.26,-3.84 -15.73,-4.1 1.44,1.05 3.11,1.67 4.81,2.15 6.29,1.83 12.58,3.92 18.24,7.28 l -1.36,0.26 c -13.79,-6.24 -28.82,-9.88 -44.01,-9.76 -29.54,0.22 -58.72,14.4 -76.6,38.01 -2.35,2.01 -3.95,4.71 -5.48,7.36 -4.81,8.79 -9.28,18.02 -10.86,28.01 -0.13,2.23 -0.74,5.09 1.13,6.79 3.38,1.47 6.78,-1.23 9.01,-3.56 C 38.88,89.44 41.08,79.92 46.24,72.21 55.96,57.53 70.5,46 87.15,40.19 c 16.11,-5.84 34,-6.41 50.48,-1.73 21.89,5.93 41.13,21.48 50.95,41.98 2.62,6.51 6.04,13 11.53,17.54 2,1.42 4.99,3.37 7.27,1.42 1.78,-2.83 0.85,-6.37 0.36,-9.44 -2.77,-12.67 -9.6,-24.06 -17.42,-34.24 -1.21,-1.43 -1.25,-3.35 -1.51,-5.1 4.18,4.15 7.53,9.05 10.26,14.25 9.94,14.34 14.36,31.85 15.44,49.08 0.36,4.72 -0.7,9.34 -0.99,14.01 0.06,7.29 -2.05,14.39 -4.44,21.21 -3.62,9.2 -7.61,18.37 -13.52,26.37 -4.41,5.51 -8.65,11.22 -14.16,15.71 -12.73,12.85 -30.5,18.66 -47.62,23 -12.2,0.85 -24.68,2.86 -36.75,-0.28 -8.54,-0.75 -16.78,-3.63 -24.2,-7.89 -4.23,-2.42 -8.87,-4.15 -12.84,-7.01 -8.12,-6.33 -15.95,-13.16 -22.47,-21.15 -1.7,-3.31 -3.98,-6.26 -6.14,-9.27 C 17.36,146.44 13.01,118.47 19.42,93.02 23.49,78.24 30.27,64.04 40.37,52.42 c 3.6,-3.77 7.25,-7.5 11.08,-11.04 5,-4.62 11.16,-7.7 16.67,-11.61 l 0.76,-1.42 c -3.26,1.08 -6.15,3.02 -9.46,3.97 2.08,-2 4.76,-3.16 7.23,-4.59 z"
         style="fill:#f1cb17" />
      <path
         inkscape:connector-curvature="0"
         id="path10"
         d="m 38.43,57.56 c 17.88,-23.61 47.06,-37.79 76.6,-38.01 15.19,-0.12 30.22,3.52 44.01,9.76 0.17,0.45 0.51,1.34 0.69,1.79 -13.21,-5.62 -27.29,-9.38 -41.7,-9.61 -26.9,-0.33 -54.04,10.3 -72.7,29.83 -2.33,2.03 -3.95,5.02 -6.9,6.24 z"
         style="fill:#f8e58c" />
      <path
         inkscape:connector-curvature="0"
         id="path12"
         d="m 137.35,19.62 c 5.47,0.26 10.57,2.47 15.73,4.1 5.23,1.64 9.81,4.77 15,6.48 6.53,3.38 12.72,8.19 17.84,13.2 -0.39,0.87 -0.24,1.58 0.46,2.14 6.2,5.66 10.86,12.74 15.53,19.65 4.62,6.66 7.1,14.41 10.1,21.85 1,2.67 1.16,5.55 1.86,8.3 0.08,1.6 1.18,2.45 2.69,2.72 l 0,0 c -1.06,1.66 -1.24,3.59 -0.77,5.47 1.37,6.44 0.71,13.04 0.85,19.57 -0.06,12.86 -4.33,25.19 -9.57,36.78 -2.69,7.41 -7.75,13.55 -12.06,20.04 -7.66,9.06 -15.96,18 -26.48,23.76 -7.81,4.91 -16.69,7.74 -25.46,10.38 -12.28,4.32 -25.53,4.81 -38.42,4.25 C 95.07,216.7 85.19,215.3 76.58,210.47 60,203.46 45.03,192.09 34.72,177.24 c 0.7,0.17 2.1,0.51 2.8,0.68 6.52,7.99 14.35,14.82 22.47,21.15 3.97,2.86 8.61,4.59 12.84,7.01 7.42,4.26 15.66,7.14 24.2,7.89 12.07,3.14 24.55,1.13 36.75,0.28 17.12,-4.34 34.89,-10.15 47.62,-23 5.51,-4.49 9.75,-10.2 14.16,-15.71 5.91,-8 9.9,-17.17 13.52,-26.37 2.39,-6.82 4.5,-13.92 4.44,-21.21 0.29,-4.67 1.35,-9.29 0.99,-14.01 -1.08,-17.23 -5.5,-34.74 -15.44,-49.08 -2.73,-5.2 -6.08,-10.1 -10.26,-14.25 -7.97,-8.95 -17.83,-16.01 -28.41,-21.57 -5.66,-3.36 -11.95,-5.45 -18.24,-7.28 -1.7,-0.48 -3.37,-1.1 -4.81,-2.15 z"
         style="fill:#b7990b" />
      <path
         inkscape:connector-curvature="0"
         id="path14"
         d="m 45.33,51.32 c 18.66,-19.53 45.8,-30.16 72.7,-29.83 14.41,0.23 28.49,3.99 41.7,9.61 -0.18,-0.45 -0.52,-1.34 -0.69,-1.79 l 1.36,-0.26 c 10.58,5.56 20.44,12.62 28.41,21.57 0.26,1.75 0.3,3.67 1.51,5.1 7.82,10.18 14.65,21.57 17.42,34.24 0.49,3.07 1.42,6.61 -0.36,9.44 -2.28,1.95 -5.27,0 -7.27,-1.42 C 194.62,93.44 191.2,86.95 188.58,80.44 178.76,59.94 159.52,44.39 137.63,38.46 121.15,33.78 103.26,34.35 87.15,40.19 70.5,46 55.96,57.53 46.24,72.21 c -5.16,7.71 -7.36,17.23 -14.01,23.95 -2.23,2.33 -5.63,5.03 -9.01,3.56 -1.87,-1.7 -1.26,-4.56 -1.13,-6.79 1.58,-9.99 6.05,-19.22 10.86,-28.01 1.53,-2.65 3.13,-5.35 5.48,-7.36 2.95,-1.22 4.57,-4.21 6.9,-6.24 z"
         style="fill:#f4d53f" />
      <path
         inkscape:connector-curvature="0"
         id="path16"
         d="m 59.42,32.32 c 3.31,-0.95 6.2,-2.89 9.46,-3.97 l -0.76,1.42 c -5.51,3.91 -11.67,6.99 -16.67,11.61 -3.83,3.54 -7.48,7.27 -11.08,11.04 -10.1,11.62 -16.88,25.82 -20.95,40.6 -6.41,25.45 -2.06,53.42 11.96,75.63 2.16,3.01 4.44,5.96 6.14,9.27 -0.7,-0.17 -2.1,-0.51 -2.8,-0.68 -3.43,-4.72 -6.66,-9.6 -9.12,-14.9 -2.69,-5.93 -6.29,-11.5 -7.78,-17.91 -2.41,-9.59 -3.87,-19.47 -3.49,-29.38 -0.27,-8.42 0.95,-16.87 3.44,-24.92 2.38,-6.06 3.94,-12.44 6.94,-18.26 3.75,-7.23 8.6,-13.8 13.55,-20.24 l -0.58,-0.65 c 5.96,-7.39 13.57,-13.8 21.74,-18.66 z"
         style="fill:#c2a20e" />
      <path
         inkscape:connector-curvature="0"
         id="path18"
         d="m 93.86,44.68 c 17.06,-4.84 35.88,-3.92 52.17,3.25 14.84,6.31 27.5,17.5 35.77,31.33 9.05,15.12 12.76,33.44 9.96,50.86 -2.51,17.73 -11.69,34.34 -25.01,46.25 -9.86,8.74 -21.96,14.99 -34.88,17.69 -1.03,0.24 -2.07,0.47 -3.11,0.7 -14.54,2.72 -29.75,0.67 -43.36,-4.99 -5.79,-2.47 -11.25,-5.66 -16.29,-9.42 -0.71,-0.63 -1.45,-1.22 -2.2,-1.78 -1.61,-1.27 -3.18,-2.6 -4.71,-3.96 -1.21,-1.28 -2.44,-2.54 -3.68,-3.79 C 47.14,158.24 39.79,141.94 38.57,124.98 36.93,106.42 42.41,87.37 53.66,72.52 63.59,59.23 77.93,49.32 93.86,44.68 Z"
         style="fill:#463b05" />
      <path
         inkscape:connector-curvature="0"
         id="path20"
         d="m 186.38,45.54 c -0.7,-0.56 -0.85,-1.27 -0.46,-2.14 7.75,7.14 14.73,15.37 19.69,24.68 4.64,9.58 9.18,19.39 10.95,29.98 -1.51,-0.27 -2.61,-1.12 -2.69,-2.72 -0.7,-2.75 -0.86,-5.63 -1.86,-8.3 -3,-7.44 -5.48,-15.19 -10.1,-21.85 -4.67,-6.91 -9.33,-13.99 -15.53,-19.65 z"
         style="fill:#856f08" />
      <path
         inkscape:connector-curvature="0"
         id="path22"
         d="m 106.38,45.48 c 6.09,-0.15 12.18,-0.17 18.26,0.03 13.24,1.76 26.04,7.06 36.53,15.36 18.63,14.13 29.2,37.85 28.27,61.09 -0.71,15.88 -6.61,31.55 -16.65,43.91 -16.06,19.86 -42.92,30.59 -68.16,26.58 -11.84,-1.65 -22.96,-6.78 -32.86,-13.34 -20.24,-14.75 -31.38,-40.39 -30.1,-65.15 0.61,-2.62 0.77,-5.3 1.07,-7.96 3.1,-17.17 12.45,-33.17 25.93,-44.27 10.8,-8.66 23.87,-14.76 37.71,-16.25 z"
         style="fill:#9d840a" />
      <path
         inkscape:connector-curvature="0"
         id="path24"
         d="m 105.35,48.5 c 4.54,-0.43 9.1,-1.41 13.63,-0.33 14.22,0.54 28.04,5.98 39.42,14.41 10.29,7.26 18.31,17.71 22.48,29.6 5.47,11.08 6.54,23.72 5.2,35.86 -2.54,15.14 -8.93,30.07 -19.95,40.99 -12.72,12.71 -30.18,20.55 -48.14,21.48 -13.51,0.88 -26.92,-3.17 -38.58,-9.82 C 68.97,175.27 60.55,166.31 54.84,156.1 50.39,145.6 44.82,134.85 45.39,123.14 45.14,120.75 44.42,118.4 44.55,115.98 45.99,103.21 49.16,90.26 56.51,79.52 60.94,73.64 65.55,67.76 71.46,63.3 81.08,55.32 93.08,50.45 105.35,48.5 Z"
         style="fill:#cfae0d" />
      <path
         inkscape:connector-curvature="0"
         id="path26"
         d="m 28.34,63.25 c 2.58,-4.46 5.94,-8.42 9.34,-12.27 l 0.58,0.65 c -4.95,6.44 -9.8,13.01 -13.55,20.24 -3,5.82 -4.56,12.2 -6.94,18.26 -2.49,8.05 -3.71,16.5 -3.44,24.92 -0.38,9.91 1.08,19.79 3.49,29.38 1.49,6.41 5.09,11.98 7.78,17.91 2.46,5.3 5.69,10.18 9.12,14.9 10.31,14.85 25.28,26.22 41.86,33.23 8.61,4.83 18.49,6.23 28.07,7.84 12.89,0.56 26.14,0.07 38.42,-4.25 8.77,-2.64 17.65,-5.47 25.46,-10.38 10.52,-5.76 18.82,-14.7 26.48,-23.76 4.31,-6.49 9.37,-12.63 12.06,-20.04 5.24,-11.59 9.51,-23.92 9.57,-36.78 -0.14,-6.53 0.52,-13.13 -0.85,-19.57 -0.47,-1.88 -0.29,-3.81 0.77,-5.47 0.1,0.44 0.3,1.31 0.41,1.74 3.36,20.22 1.32,41.44 -7.03,60.25 -9.81,22.7 -28.15,41.56 -50.55,52.03 -8.85,2.15 -17.47,5.23 -26.34,7.31 -6.71,0.31 -13.31,1.83 -20.06,1.32 -7.75,0.51 -15.31,-1.3 -22.89,-2.55 -15.33,-4.9 -30.23,-12.14 -42.2,-23.05 -5.22,-5.45 -11.05,-10.39 -15.41,-16.6 -1.4,-1.96 -2.99,-3.77 -4.67,-5.5 -3.97,-6.11 -6.64,-12.95 -9.64,-19.52 l -0.25,-0.33 c -0.87,-5.07 -2.09,-10.23 -4.29,-14.91 -0.22,-1.89 -0.46,-3.78 -0.78,-5.65 0.2,-3.2 0.21,-6.42 -0.13,-9.61 -0.64,-5.77 0.63,-11.53 0.19,-17.32 1.92,-15.09 7.64,-29.42 15.42,-42.42 z"
         style="fill:#856f08" />
      <path
         inkscape:connector-curvature="0"
         id="path28"
         d="m 103.02,51.95 c 22.79,-4.3 47.28,4 63.11,20.86 0.25,0.54 0.77,1.63 1.02,2.17 -1.86,-0.2 -2.93,-1.78 -4.16,-2.99 C 160.87,69.75 158.48,67.78 155.96,66 143.97,57.2 128.97,52.19 114.05,53.03 95,53.27 76.26,62.25 64.03,76.85 l -1.09,0.12 c 0.22,-0.54 0.67,-1.6 0.9,-2.13 10.04,-11.7 24.01,-20.01 39.18,-22.89 z"
         style="fill:#f1cb15" />
      <path
         inkscape:connector-curvature="0"
         id="path30"
         d="M 64.03,76.85 C 76.26,62.25 95,53.27 114.05,53.03 c 14.92,-0.84 29.92,4.17 41.91,12.97 0.32,1 0.65,2 0.98,3.01 -1.25,1.23 -2.5,2.46 -3.77,3.67 1.25,0.28 2.5,0.56 3.76,0.84 -1.51,0.55 -4.48,-0.02 -4.08,2.44 0.28,0.35 0.85,1.06 1.13,1.41 0.26,-0.76 0.52,-1.52 0.78,-2.29 1.57,0.21 2.9,1.08 4.27,1.81 1.41,-0.42 4.21,-0.93 3.44,1.51 -1.79,-0.14 -3.7,-0.55 -5.29,0.54 0.4,0.54 0.79,1.09 1.19,1.63 -0.31,0.3 -0.93,0.91 -1.23,1.21 2.82,0.86 5.65,1.69 8.44,2.67 -0.4,0.41 -1.2,1.22 -1.6,1.63 1.15,0.66 2.3,1.33 3.45,1.99 -0.45,2.15 0.93,3.93 1.44,5.91 0.12,1.58 -0.07,3.17 -0.17,4.75 -0.98,-2.02 -2.92,-0.52 -4.4,-0.14 0.05,1.05 0.15,2.13 -0.23,3.15 -0.8,-0.39 -1.58,-0.78 -2.37,-1.18 -3.02,0.46 -6.06,1.98 -6.55,5.32 2.22,2.07 6.4,1.38 7.43,4.72 0.74,-0.04 1.47,-0.07 2.21,-0.11 -0.94,2.66 0.04,5.46 -0.59,8.14 -0.72,-0.39 -1.43,-0.79 -2.14,-1.19 -0.72,0.43 -1.44,0.86 -2.15,1.28 0.91,2.11 1.88,4.33 4.16,5.28 -1.86,0.35 -3.72,0.67 -5.59,0.93 -10.6,0.92 -21.22,2.7 -31.87,2.2 3.3,-0.95 6.75,-1.13 10.17,-1.21 -0.7,-0.71 -1.4,-1.43 -2.09,-2.14 1.6,-3.71 -0.61,-7.63 -1.25,-11.33 -1.46,-2.3 -0.48,-4.79 -0.02,-7.2 -1.67,-2.51 -3.32,-5.07 -3.74,-8.13 -3.06,-0.72 -5.31,1.97 -7.81,3.23 -1.56,-2.03 -4.16,-2.68 -6.6,-2.75 -1.94,0.52 -3.51,1.95 -5.23,2.94 -0.85,-0.56 -1.69,-1.12 -2.54,-1.68 -0.96,2.11 -1.46,4.77 -3.88,5.71 -1.44,1.03 -3.17,0.06 -4.76,0.38 1.41,2.26 3.58,3.82 5.72,5.31 -0.97,0.71 -1.95,1.42 -2.92,2.14 -0.28,3.9 -2.68,7.39 -2.05,11.38 -0.79,0.73 -1.59,1.47 -2.38,2.2 2.76,0.08 5.5,0.45 8.17,1.15 -11.15,0.81 -22.24,-1.06 -33.29,-2.28 -5.81,-0.47 -12.46,-1.95 -15.5,-7.5 -2.91,-3.72 -2.39,-9.02 -5.13,-12.7 -0.25,-0.23 -0.74,-0.69 -0.99,-0.93 0.24,-1.9 0.62,-3.77 1.09,-5.63 0.85,0.53 1.68,1.07 2.51,1.64 -0.94,-2.25 0.67,-4.63 -0.49,-6.71 1.24,-2.47 2.51,-4.97 4.37,-7.05 2.44,-2.75 3.87,-6.2 6.06,-9.12 z"
         style="fill:#bfa00c" />
      <path
         inkscape:connector-curvature="0"
         id="path34"
         d="m 115.27,97.6 c 2.44,0.07 5.04,0.72 6.6,2.75 2.5,-1.26 4.75,-3.95 7.81,-3.23 0.42,3.06 2.07,5.62 3.74,8.13 -0.46,2.41 -1.44,4.9 0.02,7.2 0.64,3.7 2.85,7.62 1.25,11.33 0.69,0.71 1.39,1.43 2.09,2.14 -3.42,0.08 -6.87,0.26 -10.17,1.21 -7.07,0.29 -14.15,0.38 -21.21,0 -2.67,-0.7 -5.41,-1.07 -8.17,-1.15 0.79,-0.73 1.59,-1.47 2.38,-2.2 -0.63,-3.99 1.77,-7.48 2.05,-11.38 0.97,-0.72 1.95,-1.43 2.92,-2.14 -2.14,-1.49 -4.31,-3.05 -5.72,-5.31 1.59,-0.32 3.32,0.65 4.76,-0.38 2.42,-0.94 2.92,-3.6 3.88,-5.71 0.85,0.56 1.69,1.12 2.54,1.68 1.72,-0.99 3.29,-2.42 5.23,-2.94 z"
         style="fill:#ae920b" />
      <path
         inkscape:connector-curvature="0"
         id="path38"
         d="m 51.48,104.65 c 2.74,3.68 2.22,8.98 5.13,12.7 3.04,5.55 9.69,7.03 15.5,7.5 -0.1,0.58 -0.3,1.75 -0.4,2.34 -1.04,0.15 -2.09,0.31 -3.13,0.47 -0.24,1.25 0.48,3.05 -0.82,3.88 -1.89,1.11 -1.18,3.48 -1.18,5.28 -2.68,2.23 -4.34,5.69 -3.73,9.21 0.9,5.59 4.66,10.09 7.92,14.51 2.54,3.61 5.32,7.12 8.87,9.82 2.57,1.95 5.03,4.14 6.58,7.03 -1.19,0.02 -2.37,0.04 -3.56,0.07 -1.08,0 -2.15,0.08 -3.23,0.13 -3.09,-0.6 -5.42,-3.25 -7.92,-5.05 -3.26,-3.28 -7.1,-6.31 -9.08,-10.59 0.64,0.15 1.91,0.43 2.55,0.57 -3.02,-4.83 -6.42,-9.48 -8.56,-14.79 -5.66,-13.48 -8.07,-28.66 -4.94,-43.08 z"
         style="fill:#f1cb15" />
      <path
         inkscape:connector-curvature="0"
         id="path40"
         d="m 178.46,104.92 c 3.85,9.43 1.86,20.08 0.1,29.8 -2.27,8.32 -5.15,16.86 -10.71,23.6 -2.1,2.01 -3.47,5.36 -6.63,5.8 2,-3.61 3.95,-7.28 4.69,-11.39 0.61,-1.87 1.17,-3.75 1.6,-5.67 0.19,-3.55 -1.88,-6.53 -4.34,-8.85 0.76,-2.23 1.31,-4.56 0.77,-6.9 -2.07,0.18 -4.14,0.34 -6.21,0.49 -0.2,-0.77 -0.38,-1.54 -0.57,-2.31 -0.37,-0.24 -1.11,-0.73 -1.48,-0.98 0.94,-1.19 1.87,-2.38 2.8,-3.58 1.87,-0.26 3.73,-0.58 5.59,-0.93 3.71,-0.54 7.07,-2.58 9.32,-5.57 3.15,-3.82 3.95,-8.84 5.07,-13.51 z"
         style="fill:#f1cb15" />
      <path
         inkscape:connector-curvature="0"
         id="path42"
         d="m 11.69,118.03 c 0,-4.15 0.36,-8.29 1.23,-12.36 0.44,5.79 -0.83,11.55 -0.19,17.32 0.34,3.19 0.33,6.41 0.13,9.61 -1.67,-4.68 -1.14,-9.7 -1.17,-14.57 z"
         style="fill:#736a41" />
      <path
         inkscape:connector-curvature="0"
         id="path44"
         d="m 72.11,124.85 c 11.05,1.22 22.14,3.09 33.29,2.28 7.06,0.38 14.14,0.29 21.21,0 10.65,0.5 21.27,-1.28 31.87,-2.2 -0.93,1.2 -1.86,2.39 -2.8,3.58 0.37,0.25 1.11,0.74 1.48,0.98 0.19,0.77 0.37,1.54 0.57,2.31 2.07,-0.15 4.14,-0.31 6.21,-0.49 0.54,2.34 -0.01,4.67 -0.77,6.9 -5.5,-3.42 -11.44,-6.43 -17.94,-7.28 -18.69,-2.45 -37.73,-2.3 -56.46,-0.29 -5.86,0.55 -11.46,2.49 -17.03,4.3 -1.73,0.59 -3.46,1.2 -5.16,1.88 0,-1.8 -0.71,-4.17 1.18,-5.28 1.3,-0.83 0.58,-2.63 0.82,-3.88 1.04,-0.16 2.09,-0.32 3.13,-0.47 0.1,-0.59 0.3,-1.76 0.4,-2.34 z"
         style="fill:#e3be0e" />
      <path
         inkscape:connector-curvature="0"
         id="path46"
         d="m 88.77,130.64 c 18.73,-2.01 37.77,-2.16 56.46,0.29 -1.14,3.32 -1.52,7.59 -4.9,9.48 -4.37,2.66 -8.57,5.73 -13.42,7.47 -12.63,4.46 -28.67,-1.12 -34.25,-13.68 -0.74,-1.69 -2.48,-2.53 -3.89,-3.56 z"
         style="fill:#b5980b" />
      <path
         inkscape:connector-curvature="0"
         id="path48"
         d="m 71.74,134.94 c 5.57,-1.81 11.17,-3.75 17.03,-4.3 1.41,1.03 3.15,1.87 3.89,3.56 5.58,12.56 21.62,18.14 34.25,13.68 4.85,-1.74 9.05,-4.81 13.42,-7.47 3.38,-1.89 3.76,-6.16 4.9,-9.48 6.5,0.85 12.44,3.86 17.94,7.28 2.46,2.32 4.53,5.3 4.34,8.85 -0.77,-0.56 -1.54,-1.12 -2.3,-1.68 -2.08,3.46 -5.25,6 -7.89,9 -1.49,1.68 -3.71,2.37 -5.61,3.45 -3.73,1.8 -6.16,5.49 -10.01,7.09 -4.27,1.91 -8.67,3.53 -12.81,5.72 -3.81,-1.62 -7.92,0.01 -11.89,-0.45 -3.42,0.39 -6.75,-0.31 -9.99,-1.36 -3.14,-0.89 -7.62,1.24 -9.45,-2.45 -0.24,-3.27 0.69,-7.29 -2.52,-9.49 -2.56,0.2 -5.11,-0.02 -7.42,-1.31 0.23,-0.41 0.7,-1.23 0.93,-1.64 -1.27,-2.89 -2.32,-6.66 -6.04,-6.93 0.3,-0.67 0.6,-1.34 0.89,-2 -1.26,-0.56 -2.52,-1.11 -3.78,-1.65 -0.79,0.28 -1.57,0.56 -2.36,0.85 -1.65,-1.69 -2.97,-3.66 -4.13,-5.72 -0.63,-0.08 -1.26,-0.16 -1.88,-0.24 0.16,-1.1 0.33,-2.21 0.49,-3.31 z"
         style="fill:#c3a30c" />
      <path
         inkscape:connector-curvature="0"
         id="path50"
         d="m 66.58,136.82 c 1.7,-0.68 3.43,-1.29 5.16,-1.88 -0.16,1.1 -0.33,2.21 -0.49,3.31 0.62,0.08 1.25,0.16 1.88,0.24 1.16,2.06 2.48,4.03 4.13,5.72 0.79,-0.29 1.57,-0.57 2.36,-0.85 1.26,0.54 2.52,1.09 3.78,1.65 -0.29,0.66 -0.59,1.33 -0.89,2 3.72,0.27 4.77,4.04 6.04,6.93 -0.23,0.41 -0.7,1.23 -0.93,1.64 2.31,1.29 4.86,1.51 7.42,1.31 3.21,2.2 2.28,6.22 2.52,9.49 1.83,3.69 6.31,1.56 9.45,2.45 3.24,1.05 6.57,1.75 9.99,1.36 3.97,0.46 8.08,-1.17 11.89,0.45 4.14,-2.19 8.54,-3.81 12.81,-5.72 3.85,-1.6 6.28,-5.29 10.01,-7.09 1.9,-1.08 4.12,-1.77 5.61,-3.45 2.64,-3 5.81,-5.54 7.89,-9 0.76,0.56 1.53,1.12 2.3,1.68 -0.43,1.92 -0.99,3.8 -1.6,5.67 -4.1,4.88 -7.36,10.94 -13.46,13.63 -9.97,3.98 -19.39,10.21 -30.4,10.77 -8.75,0.23 -17.68,0.61 -26.19,-1.82 -3.85,-1.1 -6.62,-4.16 -9.67,-6.57 -0.62,0.15 -1.23,0.3 -1.84,0.45 -2.74,-2.15 -5.98,-3.58 -8.55,-5.94 -1.46,-1.27 -2.87,-2.98 -5.03,-2.71 -3.26,-4.42 -7.02,-8.92 -7.92,-14.51 -0.61,-3.52 1.05,-6.98 3.73,-9.21 z"
         style="fill:#d2b00d" />
      <path
         inkscape:connector-curvature="0"
         id="path52"
         d="m 13.64,138.25 c 2.2,4.68 3.42,9.84 4.29,14.91 -0.21,-0.08 -0.63,-0.24 -0.84,-0.32 -1.97,-4.59 -3.28,-9.58 -3.45,-14.59 z"
         style="fill:#69623f" />
      <path
         inkscape:connector-curvature="0"
         id="path54"
         d="m 152.45,166.36 c 6.1,-2.69 9.36,-8.75 13.46,-13.63 -0.74,4.11 -2.69,7.78 -4.69,11.39 3.16,-0.44 4.53,-3.79 6.63,-5.8 0.18,0.39 0.53,1.16 0.71,1.55 1.87,-1.98 3.2,-4.54 5.57,-6 -3.22,7.76 -9.29,14.17 -15.79,19.38 -0.21,0.03 -0.63,0.08 -0.83,0.11 -2.21,-0.2 -3.92,1.34 -5.7,2.4 -20.47,12.97 -48.08,13.65 -69.15,1.7 1.19,-0.03 2.37,-0.05 3.56,-0.07 -1.55,-2.89 -4.01,-5.08 -6.58,-7.03 -3.55,-2.7 -6.33,-6.21 -8.87,-9.82 2.16,-0.27 3.57,1.44 5.03,2.71 2.57,2.36 5.81,3.79 8.55,5.94 0.61,-0.15 1.22,-0.3 1.84,-0.45 3.05,2.41 5.82,5.47 9.67,6.57 8.51,2.43 17.44,2.05 26.19,1.82 11.01,-0.56 20.43,-6.79 30.4,-10.77 z"
         style="fill:#eac40e" />
      <path
         inkscape:connector-curvature="0"
         id="path56"
         d="m 58.52,170.82 c 1.24,1.25 2.47,2.51 3.68,3.79 -2.01,1.26 -5.01,-1.78 -3.68,-3.79 z"
         style="fill:#f8e58c" />
      <path
         inkscape:connector-curvature="0"
         id="path58"
         d="m 27.82,173.01 c 1.68,1.73 3.27,3.54 4.67,5.5 4.36,6.21 10.19,11.15 15.41,16.6 11.97,10.91 26.87,18.15 42.2,23.05 7.58,1.25 15.14,3.06 22.89,2.55 6.75,0.51 13.35,-1.01 20.06,-1.32 8.87,-2.08 17.49,-5.16 26.34,-7.31 -22.21,11.14 -48.7,12.84 -72.48,6.05 -24.35,-7.03 -46.1,-23.29 -59.09,-45.12 z"
         style="fill:#463b05" />
      <path
         inkscape:connector-curvature="0"
         id="path60"
         d="m 151.81,175.76 c 1.78,-1.06 3.49,-2.6 5.7,-2.4 -8.8,7.67 -20.18,11.96 -31.57,13.93 -15.98,2.76 -32.95,-0.85 -46.51,-9.7 1.08,-0.05 2.15,-0.13 3.23,-0.13 21.07,11.95 48.68,11.27 69.15,-1.7 z"
         style="fill:#f2d02b" />
      <path
         inkscape:connector-curvature="0"
         id="path62"
         d="m 131.87,194.06 c 12.92,-2.7 25.02,-8.95 34.88,-17.69 1.14,1.64 -1.11,2.48 -1.95,3.46 -9.64,7.44 -20.79,13.76 -32.99,15.49 l 0.06,-1.26 z"
         style="fill:#f4d53f" />
      <path
         inkscape:connector-curvature="0"
         id="path64"
         d="m 69.11,180.35 c -1.11,1.8 -4.47,-0.96 -2.2,-1.78 0.75,0.56 1.49,1.15 2.2,1.78 z"
         style="fill:#ffffff" />
      <path
         inkscape:connector-curvature="0"
         id="path66"
         d="m 83.32,189.55 2.08,0.22 c 13.61,5.66 28.82,7.71 43.36,4.99 0.67,0.27 2.01,0.8 2.69,1.07 -15.8,2.81 -32.64,1.75 -47.3,-5.15 l -0.83,-1.13 z"
         style="fill:#f0d44f" />
    </g>
  </g>
</svg>
