<?xml version="1.0" encoding="UTF-8" standalone="no"?>
<svg
   xmlns:dc="http://purl.org/dc/elements/1.1/"
   xmlns:cc="http://creativecommons.org/ns#"
   xmlns:rdf="http://www.w3.org/1999/02/22-rdf-syntax-ns#"
   xmlns:svg="http://www.w3.org/2000/svg"
   xmlns="http://www.w3.org/2000/svg"
   xmlns:sodipodi="http://sodipodi.sourceforge.net/DTD/sodipodi-0.dtd"
   xmlns:inkscape="http://www.inkscape.org/namespaces/inkscape"
   width="228pt"
   height="235pt"
   viewBox="0 0 228 235"
   version="1.1"
   id="svg2"
   inkscape:version="0.91 r13725"
   sodipodi:docname="up.svg">
  <metadata
     id="metadata70">
    <rdf:RDF>
      <cc:Work
         rdf:about="">
        <dc:format>image/svg+xml</dc:format>
        <dc:type
           rdf:resource="http://purl.org/dc/dcmitype/StillImage" />
      </cc:Work>
    </rdf:RDF>
  </metadata>
  <defs
     id="defs68" />
  <sodipodi:namedview
     pagecolor="#ffffff"
     bordercolor="#666666"
     borderopacity="1"
     objecttolerance="10"
     gridtolerance="10"
     guidetolerance="10"
     inkscape:pageopacity="0"
     inkscape:pageshadow="2"
     inkscape:window-width="1920"
     inkscape:window-height="1017"
     id="namedview66"
     showgrid="false"
     inkscape:zoom="1.4142136"
     inkscape:cx="171.42223"
     inkscape:cy="117.08703"
     inkscape:window-x="1592"
     inkscape:window-y="131"
     inkscape:window-maximized="1"
     inkscape:current-layer="g4337" />
  <g
     inkscape:groupmode="layer"
     id="layer1"
     inkscape:label="Layer 1">
    <g
       id="g4337">
      <g
         id="g4226">
        <path
           inkscape:connector-curvature="0"
           style="fill:#282808;fill-opacity:0.1254902"
           d="m 113.40071,12.658686 c 4.89,-0.37 9.72,0.91 14.61,0.89 20.42999,2.18 40.01999,10.62 56.03999,23.42 18.52,14.88 32.08,35.879997 37.69,58.979997 3.49,12.040007 3.02,24.670017 2.72,37.050007 -1.9,20.89001 -10.24,41.01 -23.18,57.46 -11.77,14.15002 -26.53,26.08 -43.72,32.93002 -9.52,4.15 -19.71,6.43 -29.94999,7.93 -7.2,0.43 -14.42,0.29 -21.62,0.15 -20.940006,-1.72 -41.260008,-9.82 -57.780008,-22.76 -24.59,-18.85 -40.3299995,-48.72 -42.0099995,-79.66 -1.43,-6.66 0.25,-13.33 0.39,-20.01001 3.24,-27.140017 17.3799995,-52.620014 38.1099995,-70.330014 16.03,-13.49 35.950002,-22.29 56.709998,-25.03 4.01001,-0.21 8.01001,-0.5 11.99001,-1.02 z"
           id="path6-8" />
        <path
           inkscape:connector-curvature="0"
           style="fill:#4d4d3f;fill-opacity:0.58823529"
           d="m 200.6807,60.298683 1.24,0.49 c 11.3,15.33 17.92,33.92 19.58,52.860017 0.03,8.89 0.65,17.87999 -1.21,26.65 -5.88,36.08 -31.89,67.95 -66,81.03999 -9.38,3.74002 -19.32999,5.82 -29.31999,7.04 -5.33,0.29 -10.67,0.1 -16,0.14 -24.830006,-1.6 -49.180008,-11.96 -66.980008,-29.47 -17.01,-16.01 -28.37,-37.93 -31.629999,-61.07 -1.6000005,-8.22 -0.8400005,-16.64 -0.8800005,-24.96 1.3500005,-15.080007 5.8999995,-29.930007 13.5399995,-43.040007 0.58,-1.01 1.41,-1.77 2.47,-2.3 -1.33,3.36 -3.02,6.56 -4.54,9.83 -2.22,4.35 -3.95,8.95 -4.89,13.75 l -0.1,0.38 c -5.769999,19.989997 -5.019999,41.710007 1.55,61.420007 0.11,0.98 0.32,2.93 0.42,3.91 11.53,33.74 41.99,60.17 77.020002,66.87 9.830006,2.39 20.010006,1.83 30.030006,1.67 23.80999,-2.21 46.86999,-12.72 63.58999,-29.91 17.19,-16.91 28.16,-40.11 29.77,-64.19 1.35,-16.12 -0.08,-32.590007 -5.84,-47.800007 -2.87,-8.28 -7.41,-15.79 -11.82,-23.31 z"
           id="path32-2" />
        <path
           style="fill:#f1ca11"
           d="m 64.18,29.4 c 27.35,-16.49 62.69,-18.08 91.93,-5.59 4.81,2.15 9.75,4.25 13.92,7.53 -10.52,-4.69 -20.96,-10.53 -32.68,-11.43 7.78,2.92 16.05,4.71 23.21,9.1 l -1.63,0.08 C 155.2,28.07 151.81,26.12 148.13,24.94 130.78,19.06 111.77,17.8 93.9,22.06 72,27 51.92,39.71 38.36,57.65 c -2.37,2.24 -4.23,4.95 -5.74,7.83 -4.75,8.97 -9.45,18.29 -10.69,28.49 -0.22,2.17 -0.37,5.27 2.06,6.27 2.5,0.51 4.82,-1.11 6.63,-2.64 3.39,-2.9 4.25,-7.49 5.9,-11.41 3.61,-8.68 9.16,-16.42 15.21,-23.56 2.76,-3.27 6.57,-5.36 9.81,-8.11 14.71,-12.71 34.16,-19.22 53.45,-19.78 9.06,0.22 18.09,1.84 26.73,4.57 6.43,1.99 12.29,5.37 18.3,8.34 1.07,1.14 2.09,2.33 3.16,3.48 -3.69,-1.65 -7.25,-3.56 -10.78,-5.54 -9.92,-5.46 -21.27,-7.33 -32.36,-8.8 -6.29,-0.93 -12.58,0.4 -18.76,1.46 -17.77,3.32 -34.25,12.28 -47.23,24.77 -6.08,6.89 -11.01,14.72 -14.65,23.15 -6.55,11.08 -8.23,24.18 -8.54,36.82 0.73,9.5 2.3,18.98 5.02,28.11 5.14,13.31 14.01,25.01 24.92,34.15 15.14,13.9 35.97,19.96 56.19,20.37 37.15,-0.17 72.04,-28.19 80.34,-64.38 2.61,-9.2 2.53,-18.83 2.12,-28.3 -0.62,-6.52 -2.38,-12.86 -3.84,-19.23 l 1.48,0.85 c 2.42,2.56 4.91,6.05 8.88,5.83 2.84,-1.23 2.79,-4.8 2.36,-7.38 -2.1,-13.17 -8.82,-25.09 -16.73,-35.64 -1.58,-1.95 -2.14,-4.42 -2.73,-6.8 6.35,6.16 10.09,14.27 14.85,21.6 7.55,15.19 11.83,32.38 10.64,49.4 -0.98,5.99 -0.43,12.16 -2.11,18.04 -2.23,8.42 -5.58,16.51 -9.38,24.33 -5.14,9.7 -11.99,18.45 -19.89,26.05 -11.54,12.07 -27.49,18.68 -43.4,22.74 -9.63,3.12 -19.86,2.53 -29.8,3.51 -6.86,-0.38 -13.51,-2.25 -20.3,-3.17 -9.46,-2.59 -18,-7.57 -26.59,-12.17 C 54.3,195.49 47.02,188.3 40.05,180.99 27.09,165.87 18.53,146.88 16.57,127.01 c -0.19,-7.52 -0.39,-15.07 0.18,-22.58 2.36,-16.07 8.27,-31.76 17.79,-44.98 2.43,-3.4 4.77,-6.93 8.02,-9.62 5.28,-4.42 9.81,-9.73 15.69,-13.42 4.5,-3.46 10.12,-5.34 14.02,-9.57 -2.7,0.84 -5.4,1.69 -8.09,2.56 z"
           id="path8"
           inkscape:connector-curvature="0" />
        <path
           style="fill:#f8e58c"
           d="m 93.9,22.06 c 17.87,-4.26 36.88,-3 54.23,2.88 3.68,1.18 7.07,3.13 10.8,4.15 0.22,0.52 0.65,1.55 0.87,2.07 C 142.56,23.51 123.31,19.68 104.5,22.29 82.21,24.76 60.88,35.21 45.22,51.26 43.1,53.56 40.93,55.83 38.36,57.65 51.92,39.71 72,27 93.9,22.06 Z"
           id="path10"
           inkscape:connector-curvature="0" />
        <path
           style="fill:#ae920b"
           d="m 137.35,19.91 c 11.72,0.9 22.16,6.74 32.68,11.43 5.7,3.37 11.42,7.27 15.79,12.26 1.89,3.26 5.05,5.5 7.26,8.52 5.26,6.94 10.94,13.75 14.27,21.89 2.41,6.24 5.65,12.22 6.71,18.89 2.89,10.35 4.46,21.23 2.94,31.94 -0.36,10.18 -2.97,20.17 -7.1,29.46 -5.55,15.16 -15.27,28.62 -27.27,39.34 -5.36,5.82 -12.41,9.52 -18.98,13.75 -8.76,4.48 -18.49,6.44 -27.84,9.29 -10.69,2.43 -21.77,2.14 -32.65,1.75 -7.4,-1.5 -15.07,-2.3 -22,-5.51 -6.33,-2.84 -12.72,-5.59 -18.64,-9.21 -9.19,-5.98 -17.78,-13 -24.59,-21.65 C 20.87,162.4 11.88,135.99 13.48,110.01 13.83,103.82 15.43,97.8 15.96,91.64 l 0.1,-0.38 c 2.35,-4.3 3.87,-8.97 4.89,-13.75 1.52,-3.27 3.21,-6.47 4.54,-9.83 3.43,-6.59 8.26,-12.32 13,-17.99 1.36,0.05 2.71,0.09 4.07,0.14 -3.25,2.69 -5.59,6.22 -8.02,9.62 -9.52,13.22 -15.43,28.91 -17.79,44.98 -0.57,7.51 -0.37,15.06 -0.18,22.58 1.96,19.87 10.52,38.86 23.48,53.98 6.97,7.31 14.25,14.5 22.84,19.91 8.59,4.6 17.13,9.58 26.59,12.17 6.79,0.92 13.44,2.79 20.3,3.17 9.94,-0.98 20.17,-0.39 29.8,-3.51 15.91,-4.06 31.86,-10.67 43.4,-22.74 7.9,-7.6 14.75,-16.35 19.89,-26.05 3.8,-7.82 7.15,-15.91 9.38,-24.33 1.68,-5.88 1.13,-12.05 2.11,-18.04 1.19,-17.02 -3.09,-34.21 -10.64,-49.4 -4.76,-7.33 -8.5,-15.44 -14.85,-21.6 -7.94,-8.93 -17.78,-16.01 -28.31,-21.56 -7.16,-4.39 -15.43,-6.18 -23.21,-9.1 z"
           id="path12"
           inkscape:connector-curvature="0" />
        <path
           style="fill:#f4d53f"
           d="m 104.5,22.29 c 18.81,-2.61 38.06,1.22 55.3,8.87 -0.22,-0.52 -0.65,-1.55 -0.87,-2.07 l 1.63,-0.08 c 10.53,5.55 20.37,12.63 28.31,21.56 0.59,2.38 1.15,4.85 2.73,6.8 7.91,10.55 14.63,22.47 16.73,35.64 0.43,2.58 0.48,6.15 -2.36,7.38 -3.97,0.22 -6.46,-3.27 -8.88,-5.83 -0.82,-6.63 -3.41,-12.95 -7.19,-18.43 -3.57,-5.03 -6.56,-10.63 -11.45,-14.56 -5.94,-4.89 -10.86,-11.44 -18.43,-13.92 -6.01,-2.97 -11.87,-6.35 -18.3,-8.34 -8.64,-2.73 -17.67,-4.35 -26.73,-4.57 -19.29,0.56 -38.74,7.07 -53.45,19.78 -3.24,2.75 -7.05,4.84 -9.81,8.11 -6.05,7.14 -11.6,14.88 -15.21,23.56 -1.65,3.92 -2.51,8.51 -5.9,11.41 -1.81,1.53 -4.13,3.15 -6.63,2.64 -2.43,-1 -2.28,-4.1 -2.06,-6.27 1.24,-10.2 5.94,-19.52 10.69,-28.49 1.51,-2.88 3.37,-5.59 5.74,-7.83 2.57,-1.82 4.74,-4.09 6.86,-6.39 15.66,-16.05 36.99,-26.5 59.28,-28.97 z"
           id="path14"
           inkscape:connector-curvature="0" />
        <path
           style="fill:#c8a70c"
           d="m 64.18,29.4 c 2.69,-0.87 5.39,-1.72 8.09,-2.56 -3.9,4.23 -9.52,6.11 -14.02,9.57 -5.88,3.69 -10.41,9 -15.69,13.42 C 41.2,49.78 39.85,49.74 38.49,49.69 45.98,41.74 54.44,34.41 64.18,29.4 Z"
           id="path16"
           inkscape:connector-curvature="0" />
        <path
           style="fill:#c2a20c"
           d="m 101.28,38.25 c 6.18,-1.06 12.47,-2.39 18.76,-1.46 11.09,1.47 22.44,3.34 32.36,8.8 3.53,1.98 7.09,3.89 10.78,5.54 10.01,7.46 18.91,16.78 24.59,27.98 2.45,4.95 4.54,10.12 7.84,14.6 1.46,6.37 3.22,12.71 3.84,19.23 0.41,9.47 0.49,19.1 -2.12,28.3 -8.3,36.19 -43.19,64.21 -80.34,64.38 C 96.77,205.21 75.94,199.15 60.8,185.25 49.89,176.11 41.02,164.41 35.88,151.1 33.16,141.97 31.59,132.49 30.86,122.99 31.17,110.35 32.85,97.25 39.4,86.17 43.04,77.74 47.97,69.91 54.05,63.02 67.03,50.53 83.51,41.57 101.28,38.25 Z"
           id="path18"
           inkscape:connector-curvature="0" />
        <path
           style="fill:#887209"
           d="m 110.38,40.6 c 17.67,-0.98 35.66,3.82 50.3,13.81 9.98,7.18 18.81,16.17 24.89,26.92 6.79,12.38 10.81,26.47 10.07,40.67 0.58,10.61 -2.19,21.04 -5.9,30.88 -9.19,20.51 -26.75,37.43 -48.14,44.7 -18.02,6.01 -38.18,5.49 -55.88,-1.37 C 79.28,193.75 72.83,190.9 67.6,186.31 61.37,181.31 55.31,176 50.21,169.82 44.89,162.57 40.46,154.48 38.37,145.68 35.33,134.11 33.02,121.91 35.42,110 36.29,102.32 39,95.05 42.08,88.03 45.65,77.71 53.19,69.45 60.9,62 74.31,49.4 92.21,42.37 110.38,40.6 Z"
           id="path20"
           inkscape:connector-curvature="0" />
        <path
           style="fill:#fae899"
           d="m 57.42,68.88 c 14.38,-16.8 36.3,-27.23 58.52,-26.65 18.95,-0.27 37.6,7.48 51.48,20.24 0.05,0.04 0.13,0.12 0.17,0.16 1.74,1.65 3.39,3.4 5.02,5.17 l -0.01,0.04 c -0.06,0.55 -0.2,1.65 -0.26,2.2 C 168.92,65.01 163.91,61.39 159.1,57.82 146.56,49.11 131.31,44.05 115.99,44.3 98.01,43.9 80.05,50.6 66.4,62.25 c -3.22,2.71 -6.58,5.43 -8.72,9.13 -0.06,-0.6 -0.19,-1.8 -0.25,-2.4 l -0.01,-0.1 z"
           id="path22"
           inkscape:connector-curvature="0" />
        <path
           style="fill:#f2cd1b"
           d="M 66.4,62.25 C 80.05,50.6 98.01,43.9 115.99,44.3 c 15.32,-0.25 30.57,4.81 43.11,13.52 4.81,3.57 9.82,7.19 13.24,12.22 1.78,3.01 4,5.72 6.02,8.57 7.44,11.02 10.98,24.22 11.89,37.39 0.72,19 -6.21,38.11 -18.88,52.3 -9.39,11.2 -22.56,18.76 -36.51,22.78 -14.13,3.58 -29.24,3.13 -43.11,-1.38 -16.57,-5.3 -30.3,-17.25 -40,-31.45 -4.64,-7.51 -7.9,-15.86 -9.54,-24.54 -3.92,-16.84 -0.64,-34.86 7.3,-50.06 2.22,-4.42 5.78,-7.96 8.17,-12.27 2.14,-3.7 5.5,-6.42 8.72,-9.13 z"
           id="path24"
           inkscape:connector-curvature="0" />
        <path
           style="fill:#776407"
           d="m 193.08,52.12 c -2.21,-3.02 -5.37,-5.26 -7.26,-8.52 5.77,4.73 10.63,10.58 14.86,16.7 4.41,7.52 8.95,15.03 11.82,23.31 5.76,15.21 7.19,31.68 5.84,47.8 -1.76,6.08 -2.44,12.41 -4.5,18.4 -8.12,26.28 -27.31,48.88 -51.9,61.18 -21.05,10.66 -45.79,13.74 -68.82,8.61 -31.23,-6.74 -58.62,-29 -71.56,-58.2 -1.2,-2.85 -2.53,-5.65 -4.05,-8.34 -6.57,-19.71 -7.32,-41.43 -1.55,-61.42 -0.53,6.16 -2.13,12.18 -2.48,18.37 -1.6,25.98 7.39,52.39 24.45,72.05 6.81,8.65 15.4,15.67 24.59,21.65 5.92,3.62 12.31,6.37 18.64,9.21 6.93,3.21 14.6,4.01 22,5.51 10.88,0.39 21.96,0.68 32.65,-1.75 9.35,-2.85 19.08,-4.81 27.84,-9.29 6.57,-4.23 13.62,-7.93 18.98,-13.75 12,-10.72 21.72,-24.18 27.27,-39.34 4.13,-9.29 6.74,-19.28 7.1,-29.46 1.52,-10.71 -0.05,-21.59 -2.94,-31.94 -1.06,-6.67 -4.3,-12.65 -6.71,-18.89 -3.33,-8.14 -9.01,-14.95 -14.27,-21.89 z"
           id="path26"
           inkscape:connector-curvature="0" />
        <path
           style="fill:#f3d12c"
           d="m 160.02,47.65 c 7.57,2.48 12.49,9.03 18.43,13.92 4.89,3.93 7.88,9.53 11.45,14.56 3.78,5.48 6.37,11.8 7.19,18.43 l -1.48,-0.85 c -3.3,-4.48 -5.39,-9.65 -7.84,-14.6 -5.68,-11.2 -14.58,-20.52 -24.59,-27.98 -1.07,-1.15 -2.09,-2.34 -3.16,-3.48 z"
           id="path28"
           inkscape:connector-curvature="0" />
        <path
           style="fill:#d9b60d"
           d="m 104.94,53.91 c 17.69,-2.97 36.55,1.25 50.87,12.17 -0.73,2.22 -1.27,4.7 -3.22,6.21 0.32,2.23 0.81,4.68 3.1,5.66 -0.32,-1.18 -0.63,-2.36 -0.94,-3.54 2.93,1.37 2.81,4.5 3.44,7.19 2.87,1.78 5.84,3.49 8.1,6.07 -0.58,0.79 -1.15,1.57 -1.72,2.37 0.3,1.02 0.61,2.04 0.92,3.07 -1.24,0.82 -2.48,1.65 -3.72,2.47 0.21,1.47 0.43,2.94 0.66,4.41 -2.45,1.14 -5.05,1.88 -7.7,2.36 0.24,2.23 0.19,4.67 1.46,6.61 1.34,0.89 2.92,1.38 4.24,2.3 1.11,3.25 0.29,6.77 0.53,10.14 -0.35,0.3 -1.04,0.9 -1.39,1.2 0.91,0.59 1.82,1.19 2.74,1.78 -1.16,0.18 -2.32,0.34 -3.49,0.48 -5.41,0.66 -10.84,1.28 -16.29,1.49 -0.11,-4.17 1.21,-8.42 -0.11,-12.52 -0.84,-3.08 -2.28,-6.04 -2.38,-9.28 -0.31,-5.72 -3.17,-10.95 -3.55,-16.66 1.27,-1.54 3.22,-2.56 3.97,-4.5 1.25,-3.14 2.94,-6.09 4.16,-9.23 -0.93,-3.86 -5.25,-4.07 -8.42,-4.64 -2.86,-0.33 -6.03,-2.7 -8.56,-0.2 -0.98,-0.15 -1.95,-0.31 -2.92,-0.47 -0.93,1.36 -2.01,2.64 -2.69,4.14 -0.22,1.49 0.3,3.08 -0.14,4.53 -1.62,2.13 -4.51,2.18 -6.94,2.39 -0.64,1.5 -0.58,3.7 -2.3,4.44 -2.93,1.42 -5.67,3.16 -8.28,5.09 -0.97,1.04 -2.35,0.48 -3.55,0.41 -1.13,1.85 -2.4,3.82 -4.61,4.46 -3.42,1.07 -5.84,3.79 -8.25,6.28 -0.84,-0.33 -1.67,-0.67 -2.51,-1 0.55,3.25 -0.8,6.09 -2.63,8.65 0.29,2.99 4.14,5.07 3.43,8.38 -0.49,3.31 0.48,6.56 1.24,9.75 -3.12,-0.12 -6.24,-0.24 -9.34,-0.57 -5.02,-0.7 -10.01,-1.6 -14.97,-2.68 -7.52,-3.04 -9.17,-11.54 -11.34,-18.42 -4.41,13.82 -1.03,28.83 4.14,41.96 -0.05,0.6 -0.15,1.8 -0.2,2.4 -5.71,-9.23 -7.84,-20.38 -7.46,-31.14 -0.22,-10.49 2.51,-21.02 7.46,-30.25 3.93,-5.89 8.6,-11.31 13.61,-16.31 9.83,-9.06 22.23,-15.59 35.55,-17.45 z"
           id="path30"
           inkscape:connector-curvature="0" />
        <path
           style="fill:#ecc60e"
           d="m 167.42,62.47 c 0.05,0.04 0.13,0.12 0.17,0.16 -0.04,-0.04 -0.12,-0.12 -0.17,-0.16 z"
           id="path34"
           inkscape:connector-curvature="0" />
        <path
           style="fill:#e3be0e"
           d="m 155.81,66.08 c 6.19,4.4 11.15,10.27 16.15,15.92 12.04,17.96 14.66,42.04 6.02,61.97 -1.35,2.91 -2.47,6.14 -5.05,8.22 l -0.15,-1.57 c 2.84,-6.54 5.56,-13.22 6.69,-20.3 1.31,-8.44 2.05,-17.33 -0.82,-25.55 -1.46,5.34 -2.44,11.29 -6.55,15.36 -2.55,2.68 -6.27,3.64 -9.79,4.25 -0.92,-0.59 -1.83,-1.19 -2.74,-1.78 0.35,-0.3 1.04,-0.9 1.39,-1.2 -0.24,-3.37 0.58,-6.89 -0.53,-10.14 -1.32,-0.92 -2.9,-1.41 -4.24,-2.3 -1.27,-1.94 -1.22,-4.38 -1.46,-6.61 2.65,-0.48 5.25,-1.22 7.7,-2.36 -0.23,-1.47 -0.45,-2.94 -0.66,-4.41 1.24,-0.82 2.48,-1.65 3.72,-2.47 -0.31,-1.03 -0.62,-2.05 -0.92,-3.07 0.57,-0.8 1.14,-1.58 1.72,-2.37 -2.26,-2.58 -5.23,-4.29 -8.1,-6.07 -0.63,-2.69 -0.51,-5.82 -3.44,-7.19 0.31,1.18 0.62,2.36 0.94,3.54 -2.29,-0.98 -2.78,-3.43 -3.1,-5.66 1.95,-1.51 2.49,-3.99 3.22,-6.21 z"
           id="path36"
           inkscape:connector-curvature="0" />
        <path
           style="fill:#c8a70c"
           d="m 127.64,69.32 c 2.53,-2.5 5.7,-0.13 8.56,0.2 3.17,0.57 7.49,0.78 8.42,4.64 -1.22,3.14 -2.91,6.09 -4.16,9.23 -0.75,1.94 -2.7,2.96 -3.97,4.5 0.38,5.71 3.24,10.94 3.55,16.66 0.1,3.24 1.54,6.2 2.38,9.28 1.32,4.1 0,8.35 0.11,12.52 -18.32,1.39 -36.72,1.39 -55.04,0.02 -0.76,-3.19 -1.73,-6.44 -1.24,-9.75 0.71,-3.31 -3.14,-5.39 -3.43,-8.38 1.83,-2.56 3.18,-5.4 2.63,-8.65 0.84,0.33 1.67,0.67 2.51,1 2.41,-2.49 4.83,-5.21 8.25,-6.28 2.21,-0.64 3.48,-2.61 4.61,-4.46 1.2,0.07 2.58,0.63 3.55,-0.41 2.61,-1.93 5.35,-3.67 8.28,-5.09 1.72,-0.74 1.66,-2.94 2.3,-4.44 2.43,-0.21 5.32,-0.26 6.94,-2.39 0.44,-1.45 -0.08,-3.04 0.14,-4.53 0.68,-1.5 1.76,-2.78 2.69,-4.14 0.97,0.16 1.94,0.32 2.92,0.47 z"
           id="path38"
           inkscape:connector-curvature="0" />
        <path
           style="fill:#f5d952"
           d="m 172.6,67.84 c 19.01,20.37 24.68,51.72 14.8,77.68 -3.1,8.51 -7.95,16.26 -13.56,23.33 -10.61,12.34 -25.19,21.3 -41.1,24.87 -13.4,3.23 -27.65,2.55 -40.76,-1.67 -0.08,-0.79 -0.15,-1.57 -0.23,-2.35 13.87,4.51 28.98,4.96 43.11,1.38 13.95,-4.02 27.12,-11.58 36.51,-22.78 12.67,-14.19 19.6,-33.3 18.88,-52.3 -0.91,-13.17 -4.45,-26.37 -11.89,-37.39 -2.02,-2.85 -4.24,-5.56 -6.02,-8.57 0.06,-0.55 0.2,-1.65 0.26,-2.2 z"
           id="path40"
           inkscape:connector-curvature="0" />
        <path
           style="fill:#f5d84e"
           d="m 39.82,105.96 c 2.44,-13.56 8.23,-26.8 17.61,-36.98 0.06,0.6 0.19,1.8 0.25,2.4 -2.39,4.31 -5.95,7.85 -8.17,12.27 -7.94,15.2 -11.22,33.22 -7.3,50.06 1.64,8.68 4.9,17.03 9.54,24.54 9.7,14.2 23.43,26.15 40,31.45 0.08,0.78 0.15,1.56 0.23,2.35 C 75.84,186.81 61.43,176.17 51.97,162.04 44.69,151.51 40.4,139.1 38.84,126.43 38.96,119.61 38.5,112.7 39.82,105.96 Z"
           id="path42"
           inkscape:connector-curvature="0" />
        <path
           style="fill:#88792f"
           d="m 16.06,91.26 c 0.94,-4.8 2.67,-9.4 4.89,-13.75 -1.02,4.78 -2.54,9.45 -4.89,13.75 z"
           id="path44"
           inkscape:connector-curvature="0" />
        <path
           style="fill:#f3d12c"
           d="m 178.65,104.77 c 2.87,8.22 2.13,17.11 0.82,25.55 -1.13,7.08 -3.85,13.76 -6.69,20.3 -5.07,7.99 -10.25,16.74 -18.9,21.28 0.52,-2.14 2.68,-3.24 3.89,-4.96 2.52,-3.52 6.51,-6.44 6.23,-11.24 1.61,-3.03 3.56,-6.11 3.57,-9.66 0.15,-2.66 -1.52,-4.89 -3.12,-6.83 0.21,-2.91 0.27,-5.83 0.16,-8.74 -1.38,0.3 -2.76,0.6 -4.14,0.9 -0.57,-2.16 -1.12,-4.34 -1.65,-6.51 1.17,-0.14 2.33,-0.3 3.49,-0.48 3.52,-0.61 7.24,-1.57 9.79,-4.25 4.11,-4.07 5.09,-10.02 6.55,-15.36 z"
           id="path46"
           inkscape:connector-curvature="0" />
        <path
           style="fill:#f3d12e"
           d="m 55.98,146.66 c -5.17,-13.13 -8.55,-28.14 -4.14,-41.96 2.17,6.88 3.82,15.38 11.34,18.42 -0.51,3.53 -0.98,7.1 -0.49,10.65 0.39,2.68 -1.05,5.26 -0.4,7.93 0.55,3.3 0.56,6.8 2.2,9.81 2.85,5.46 7.17,9.92 11.05,14.65 3.18,4.12 7.72,6.95 10.73,11.22 -1.33,0.18 -2.66,0.35 -4,0.46 -0.63,0.03 -1.25,0.06 -1.87,0.06 -3.33,-0.34 -6.14,-2.72 -9.12,-4.12 -2.51,-4.76 -7.2,-7.91 -9.48,-12.76 2.59,1.8 4.86,3.99 7.37,5.89 -1.98,-3.56 -5.15,-6.26 -7.28,-9.72 -2.15,-3.4 -4.08,-6.94 -5.91,-10.53 z"
           id="path48"
           inkscape:connector-curvature="0" />
        <path
           style="fill:#605106"
           d="m 46.34,157.74 c -6.61,-14.22 -10.49,-30.1 -8.79,-45.84 0.46,4.85 -0.24,9.83 1.29,14.53 1.56,12.67 5.85,25.08 13.13,35.61 9.46,14.13 23.87,24.77 40.01,30.01 13.11,4.22 27.36,4.9 40.76,1.67 15.91,-3.57 30.49,-12.53 41.1,-24.87 l 1.93,-0.73 c -0.73,2.81 -2.93,4.78 -4.87,6.78 -2.98,2.98 -5.9,6.03 -9.25,8.6 -3.95,3.15 -8.78,4.83 -13.2,7.17 -7.69,3.56 -15.86,6.61 -24.42,6.88 -2.37,0.08 -4.72,0.39 -7.07,0.64 -15.97,-0.54 -32.75,-3.61 -45.88,-13.31 -9.73,-7.5 -18.89,-16.19 -24.74,-27.14 z"
           id="path50"
           inkscape:connector-curvature="0" />
        <path
           style="fill:#f2cd1d"
           d="m 63.18,123.12 c 4.96,1.08 9.95,1.98 14.97,2.68 -0.9,0.57 -1.8,1.14 -2.7,1.72 0.48,0.9 0.96,1.8 1.45,2.7 0.81,-0.18 1.62,-0.37 2.43,-0.55 0.67,0.8 1.34,1.6 2.02,2.4 -1.89,0.45 -3.77,0.94 -5.65,1.43 -5.39,0.94 -10.05,3.92 -13.41,8.2 -0.65,-2.67 0.79,-5.25 0.4,-7.93 -0.49,-3.55 -0.02,-7.12 0.49,-10.65 z"
           id="path52"
           inkscape:connector-curvature="0" />
        <path
           style="fill:#f1cb13"
           d="m 142.53,126.35 c 5.45,-0.21 10.88,-0.83 16.29,-1.49 0.53,2.17 1.08,4.35 1.65,6.51 1.38,-0.3 2.76,-0.6 4.14,-0.9 0.11,2.91 0.05,5.83 -0.16,8.74 l -1.09,-0.71 c -8.1,-5.63 -17.8,-8.31 -27.6,-8.66 -12.86,-0.84 -25.77,-0.63 -38.64,-0.08 -5.31,0.31 -10.59,1.13 -15.77,2.31 -0.68,-0.8 -1.35,-1.6 -2.02,-2.4 -0.81,0.18 -1.62,0.37 -2.43,0.55 -0.49,-0.9 -0.97,-1.8 -1.45,-2.7 0.9,-0.58 1.8,-1.15 2.7,-1.72 3.1,0.33 6.22,0.45 9.34,0.57 18.32,1.37 36.72,1.37 55.04,-0.02 z"
           id="path54"
           inkscape:connector-curvature="0" />
        <path
           style="fill:#c8a70c"
           d="m 97.12,129.76 c 12.87,-0.55 25.78,-0.76 38.64,0.08 1.5,0.65 2.96,1.38 4.42,2.1 -3.15,6.03 -9.46,9.35 -15.64,11.47 -7.47,2.03 -15.78,0.54 -22.2,-3.75 -3.1,-2.15 -5.32,-5.27 -7.72,-8.12 0.83,-0.59 1.66,-1.19 2.5,-1.78 z"
           id="path56"
           inkscape:connector-curvature="0" />
        <path
           style="fill:#d5b30d"
           d="m 81.35,132.07 c 5.18,-1.18 10.46,-2 15.77,-2.31 -0.84,0.59 -1.67,1.19 -2.5,1.78 2.4,2.85 4.62,5.97 7.72,8.12 6.42,4.29 14.73,5.78 22.2,3.75 6.18,-2.12 12.49,-5.44 15.64,-11.47 -1.46,-0.72 -2.92,-1.45 -4.42,-2.1 9.8,0.35 19.5,3.03 27.6,8.66 -4.9,3.27 -6.81,9.09 -10.77,13.19 -2.56,2.91 -6.85,2.7 -9.69,5.15 -3.89,3.49 -8.89,5.36 -13.75,7.03 -2.74,0.06 -5.49,-0.48 -8.24,-0.22 -5.62,0.5 -11.08,-1.11 -16.56,-2.06 -1.43,-0.45 -3.24,-0.46 -4.29,-1.62 -0.47,-2.04 -0.35,-4.16 -0.87,-6.18 -1.18,-2.02 -3.61,-2.71 -5.51,-3.86 -3.62,-1.77 -5.67,-5.45 -8.81,-7.83 -1.33,-1.41 -3.17,-0.08 -4.73,0.14 0.04,-1.68 0.15,-3.36 0.18,-5.04 -1.53,-1.24 -3.08,-2.47 -4.62,-3.7 1.88,-0.49 3.76,-0.98 5.65,-1.43 z"
           id="path58"
           inkscape:connector-curvature="0" />
        <path
           style="fill:#e5c00e"
           d="m 62.29,141.7 c 3.36,-4.28 8.02,-7.26 13.41,-8.2 1.54,1.23 3.09,2.46 4.62,3.7 -0.03,1.68 -0.14,3.36 -0.18,5.04 1.56,-0.22 3.4,-1.55 4.73,-0.14 3.14,2.38 5.19,6.06 8.81,7.83 1.9,1.15 4.33,1.84 5.51,3.86 0.52,2.02 0.4,4.14 0.87,6.18 1.05,1.16 2.86,1.17 4.29,1.62 5.48,0.95 10.94,2.56 16.56,2.06 2.75,-0.26 5.5,0.28 8.24,0.22 4.86,-1.67 9.86,-3.54 13.75,-7.03 2.84,-2.45 7.13,-2.24 9.69,-5.15 3.96,-4.1 5.87,-9.92 10.77,-13.19 l 1.09,0.71 c 1.6,1.94 3.27,4.17 3.12,6.83 -0.01,3.55 -1.96,6.63 -3.57,9.66 -2.73,3.05 -5.38,6.18 -8.35,9 -3.49,3.31 -8.47,4.03 -12.56,6.34 -14.05,7.83 -30.85,7.45 -46.27,5.09 -3.74,-0.09 -5.9,-3.33 -8.74,-5.21 -2.5,-0.74 -5.37,-0.82 -7.23,-2.93 -1.31,-1.67 -3.36,-1.84 -5.31,-1.83 -3.88,-4.73 -8.2,-9.19 -11.05,-14.65 -1.64,-3.01 -1.65,-6.51 -2.2,-9.81 z"
           id="path62"
           inkscape:connector-curvature="0" />
        <path
           style="fill:#f8e58c"
           d="m 80.4,177.9 c 0.62,0 1.24,-0.03 1.87,-0.06 15.86,9.31 35.71,11.2 53.25,5.89 5.53,-1.53 10.55,-4.35 15.75,-6.69 -13.52,8.69 -30.43,12.09 -46.28,9.44 -8.73,-1.05 -16.72,-4.92 -24.59,-8.58 z"
           id="path64"
           inkscape:connector-curvature="0" />
        <path
           inkscape:connector-curvature="0"
           style="fill:#211e0f;fill-opacity:0.72941176"
           d="m 213.8407,149.80869 c 2.06,-5.99 2.74,-12.32 4.5,-18.4 -1.61,24.08 -12.58,47.28 -29.77,64.19 -16.72,17.19 -39.78,27.7 -63.58999,29.91 -10.02,0.16 -20.2,0.72 -30.030006,-1.67 -35.030002,-6.69999 -65.490002,-33.13 -77.020002,-66.87 -0.1,-0.98 -0.31,-2.93 -0.42,-3.91 1.52,2.69 2.85,5.49001 4.05,8.34 12.94,29.2 40.33,51.46001 71.560002,58.2 23.030006,5.13 47.769996,2.05 68.819996,-8.61 24.59,-12.3 43.78,-34.9 51.9,-61.18 z"
           id="path60-9" />
      </g>
    </g>
  </g>
</svg>
